<svg version="1.2" xmlns="http://www.w3.org/2000/svg" viewBox="0 0 627 679" width="627" height="679">
	<title>guide_with_insight</title>
	<style>
		.s0 { opacity: .99;fill: #0d0d0d } 
	</style>
	<path id="Path 0" class="s0" d="m604.8 4.1c-5.7 2.2-30.5 11.2-55.3 20-24.7 8.9-45.8 16.9-46.8 17.8-1 0.9-1.8 2.2-1.7 2.8 0 0.7 1.5 2.8 3.3 4.5 1.8 1.8 8.6 7.6 15 12.8 11.4 9.3 11.6 9.5 9.9 11.5-1 1.1-9.7 10.6-19.4 21-9.6 10.4-25.1 26.4-34.4 35.5-9.3 9.1-25.3 23.8-35.4 32.7-10.2 8.9-25.5 21.7-34.1 28.5-8.6 6.8-22.6 17.1-31 23-8.5 5.8-21.7 14.6-29.4 19.5-7.7 4.9-22.1 13.6-32 19.3-9.9 5.7-29.3 16.1-43 23.3-13.8 7.1-25.8 13.9-26.7 15-0.9 1.2-2 3.6-2.3 5.2-0.4 1.6-0.5 4.5-0.1 6.2 0.3 1.8 2.1 4.9 3.9 6.9 1.7 1.9 4.8 4 6.7 4.6 2.9 0.9 4.9 0.6 11-1.2 4.1-1.2 15.4-5.1 25-8.7 9.6-3.6 25.2-9.9 34.5-14 9.4-4.2 22-10 28-13.1 6-3 16.6-8.6 23.5-12.4 6.9-3.9 16.5-9.5 21.5-12.6 5-3.1 14.9-9.5 22-14.3 7.2-4.7 18.6-12.8 25.5-17.9 6.9-5.1 17.2-13.2 23-17.9 5.8-4.7 17.5-14.7 26-22.2 8.5-7.4 24.3-22.3 35.1-33 10.8-10.7 24.3-24.4 30-30.5l10.4-11.2c23.6 20.8 27.7 23.8 29.7 23.8 1.5 0 3.4-0.7 4.2-1.5 0.9-0.8 1.8-2.5 2.1-3.8 0.3-1.2 3.7-21.1 7.5-44.2 3.8-23.1 7.9-48.2 9-55.8 1.1-7.5 2-14.9 2-16.5 0.1-1.5-0.7-3.4-1.7-4.3-1-0.9-2.6-1.8-3.5-2.2-0.9-0.3-6.3 1.3-12 3.4zm-489.8 161.5c-3.6 0.8-10.8 3.5-16 6.1-6.7 3.5-11.5 6.8-16.8 11.8-4.1 3.9-9.4 9.9-11.8 13.5-2.3 3.6-5.5 9.6-6.9 13.5-1.5 3.9-3.3 10.3-4.1 14.2-0.8 4-1.4 9.9-1.4 13 0.1 3.2 0.7 9.2 1.4 13.3 0.7 4.1 2.5 10.4 4 14 1.4 3.6 4.1 8.9 5.9 11.9 1.7 2.9 5.9 8.2 9.2 11.8 3.3 3.6 8.9 8.5 12.5 10.9 3.6 2.4 10.1 5.6 14.5 7.3 4.4 1.6 11.8 3.4 16.5 4.1 4.9 0.6 11.5 0.8 15.5 0.4 3.9-0.4 9.7-1.5 13-2.4 3.3-0.9 9.1-3.2 12.9-5.1 3.7-1.9 9.7-5.8 13.2-8.7 3.5-2.8 8.4-7.8 11-11 2.5-3.1 6.3-9.3 8.4-13.7 2.2-4.4 4.7-11.1 5.6-15 1-4.3 1.7-11.1 1.7-17.5 0-6.8-0.6-13-1.7-17.5-1-3.9-3.3-10.1-5.1-14-1.8-3.9-5.9-10.4-9.2-14.5-3.2-4.1-8.8-9.7-12.4-12.4-3.5-2.7-9.5-6.4-13.4-8.2-3.8-1.9-10.6-4.3-15-5.4-5.2-1.3-11-2-16.5-1.9-4.7 0-11.4 0.7-15 1.5zm421.5 10.6c-1.6 2.1-1.7 13.7-1.6 141 0.1 90.3 0.4 139.5 1.1 140.8 1 1.9 2 2 34 2 28 0 33.2-0.2 34.5-1.5 1.3-1.3 1.5-18.3 1.5-140.8 0-122.4-0.2-139.5-1.5-141.5l-1.5-2.2c-64.8 0-64.9 0-66.5 2.2zm-100 76.6c-1.8 1.8-1.9 6.6-1.7 114.5 0.2 106.3 0.3 112.7 2 113.3 0.9 0.4 8.7-1.4 17.2-3.9 8.5-2.5 23.2-6.2 32.5-8.2 9.4-2.1 17.6-4.3 18.3-4.9 1-0.9 1.3-21.1 1.3-104.6-0.1-90.5-0.3-103.8-1.6-105.8l-1.5-2.2c-62.4 0-64.8 0.1-66.5 1.8zm-100.5 60.2c-2 2-2 3.4-2 112.7-0.1 98.7 0.1 110.9 1.5 112 0.8 0.7 2.3 1.1 3.3 0.8 0.9-0.2 4.9-3 8.7-6.1 3.9-3.1 12.9-9.6 20-14.4 7.2-4.8 17.3-11.1 22.5-14 5.2-2.9 11-6.3 12.8-7.6l3.2-2.4c0-167.1-0.2-178.8-1.5-180.8l-1.5-2.2c-63.7 0-65.1 0.1-67 2zm-222 17.6c-1.4 0.3-6.1 1.2-10.5 2.1-4.4 0.8-12 2.9-17 4.5-4.9 1.7-12.8 4.8-17.5 7-4.7 2.1-13 6.9-18.5 10.6-5.5 3.7-13.8 10.3-18.5 14.8-4.7 4.5-11 11.7-14 16-3 4.3-7.1 11.5-9.2 15.9-2 4.4-4.7 12-6 17-2.1 8.3-2.3 11.2-2.3 36.2 0 25.9 0.1 27.3 2 29.2 1.9 1.9 3.6 2 29.8 2.3 17.7 0.2 28.2-0.1 28.7-0.7 0.5-0.5 1.3-3.1 1.9-5.8 0.6-2.6 1.9-6.6 2.9-8.9 0.9-2.3 2.9-5.2 4.5-6.5 1.5-1.2 4.6-2.8 7-3.4q4.2-1.2 22.2-0.6c9.9 0.4 23.4 1.3 30 2.2 6.6 0.8 16.7 2.5 22.5 3.6 5.8 1.1 17.3 3.7 25.5 5.9 8.3 2.1 21.3 6 29 8.6 7.7 2.5 20.3 7.3 28 10.6 7.7 3.3 17.1 7.6 20.8 9.7 5.5 2.9 7 3.4 8 2.3 0.9-1 1.1-9.3 0.9-32.5-0.2-19.2-0.8-34.9-1.7-40.7-0.7-5.2-2.5-13.1-4-17.5-1.4-4.4-4.7-12-7.3-16.9-2.6-4.8-7.4-12.3-10.8-16.5-3.4-4.2-9-10.2-12.5-13.4-3.5-3.3-10-8.3-14.4-11.2-4.4-2.9-12-7.3-17-9.8-4.9-2.4-12.6-5.6-17-7-4.4-1.5-12.3-3.6-17.5-4.8-7.1-1.5-14-2.1-27.5-2.4-9.9-0.2-19.1-0.1-20.5 0.1zm437.5 150.1c-2.2 0.1-9.2 0.8-15.5 1.4-6.3 0.6-17.6 2.2-25 3.5-7.4 1.4-19.6 4-27 5.9-7.4 1.9-20 5.6-28 8.3-8 2.7-19 6.8-24.5 9.1-5.5 2.3-15.6 7.1-22.5 10.8-6.9 3.6-17.4 9.8-23.5 13.7-6 4-14.4 10-18.5 13.3-4.1 3.3-11.8 10.5-17 15.9-5.3 5.5-11.4 12.6-13.6 15.9-2.3 3.3-5.1 8-6.4 10.5l-2.2 4.5c-6.4-12.4-10.4-18.7-12.9-22-2.6-3.3-8-9.2-12-13-4.1-3.9-12.6-10.9-18.9-15.6-6.3-4.8-17.6-12.2-25-16.5-7.4-4.3-17.7-9.7-22.7-12.1-5.1-2.4-13.7-6-19-8.2-5.4-2.1-15.6-5.8-22.8-8.1-7.1-2.3-18.4-5.5-25-7-6.6-1.6-19-4.1-27.5-5.4-8.5-1.4-21.3-3-28.5-3.6-7.1-0.5-16.8-1-21.5-1-6.9-0.1-8.8 0.3-10.2 1.7-0.9 1-4 8.5-6.8 16.8-2.9 8.2-7.8 21.5-11 29.5-3.1 8-8 19.5-10.7 25.5-2.8 6-7 15-9.3 20-2.6 5.5-4 9.7-3.6 10.7 0.5 1.4 1.5 1.7 4.9 1.4 2.3-0.2 8.5-1.3 13.7-2.5 5.2-1.1 14.7-2.8 21-3.6 6.3-0.9 18.7-1.8 27.5-2.1 11.2-0.5 20.4-0.2 30.5 0.9 8 0.9 20.2 2.7 27.3 4.1 7 1.4 19.1 4.6 27 7 7.8 2.5 20.5 7.1 28.2 10.3 7.7 3.2 18.7 8.4 24.5 11.6 5.8 3.2 16.1 9.6 23 14.2 6.9 4.5 15.9 10.9 20 14.2 4.1 3.3 10.9 9.1 15 12.9 4.1 3.8 11.1 10.8 15.5 15.4 4.3 4.7 8.9 9 10.1 9.5 2 0.9 3.7-0.6 17.5-14.6 8.5-8.6 20.1-19.4 25.9-23.9 5.8-4.6 16.1-12 23-16.6 6.9-4.5 16.8-10.4 22-13.1 5.2-2.8 13.8-6.8 19-9 5.2-2.3 14-5.7 19.5-7.6 5.5-1.9 16.5-5.1 24.5-7.1 8-2 20.6-4.5 28-5.6 7.4-1.1 20.9-2.3 30-2.6 9.7-0.4 22.5-0.2 31 0.5 8 0.6 19 1.9 24.5 2.7 5.5 0.9 13.6 2.4 18 3.5 4.4 1 9.5 1.9 11.3 1.9 2.1 0 3.4-0.6 3.8-1.8 0.4-0.9-2-9.5-5.4-19.7-3.4-10-7.2-23.8-8.6-31-1.3-7.1-3-17.3-3.6-22.5-0.6-5.2-1.7-14-2.3-19.5-1.1-9-1.4-10.1-3.7-11.2-1.8-0.9-8.6-1.2-25-1.1-12.4 0.1-24.3 0.3-26.5 0.5z"/>
</svg>