<svg version="1.2" xmlns="http://www.w3.org/2000/svg" viewBox="0 0 732 651" width="732" height="651">
	<title>lasting_simplicity</title>
	<style>
		.s0 { fill: #0d0d0d } 
	</style>
	<g id="Background">
		<path id="Path 1" fill-rule="evenodd" class="s0" d="m548.3 0.1c2.3-0.1 3.7 0.4 3.7 1.1 0 0.7-0.7 7.4-1.6 14.8-0.8 7.4-2.6 19.1-4 26-1.4 6.9-3.9 17.4-5.5 23.5-1.7 6.1-4.8 15.5-6.9 21-2 5.5-5.6 13.8-8 18.5-2.3 4.7-6.7 12.3-9.7 17-3.1 4.7-8.5 12-12.2 16.3-3.6 4.3-9.1 10-12.1 12.6-3 2.6-8.9 7.2-13 10.2-4.1 3.1-10.2 7.2-13.5 9.1-3.3 2-10.3 5.7-15.5 8.1-5.2 2.5-13.9 5.9-19.2 7.6-5.4 1.7-13.7 3.8-18.5 4.6-7.4 1.3-9.2 1.9-11 4.2-1.3 1.6-3.9 6.6-5.9 11.3-2 4.7-5.5 15.3-7.9 23.5-2.3 8.3-5.2 20.4-6.3 27-1.2 6.6-2.6 17.2-3.2 23.5-0.5 6.3-1 16.9-1 35.5l3.6-6.5c2-3.6 4.3-8.8 5.1-11.5 0.8-2.8 3-7.9 4.9-11.5 1.8-3.6 5.8-9.4 8.7-13 2.9-3.6 8-8.5 11.3-10.9 3.2-2.5 9.5-6.2 13.9-8.2 4.4-2.1 11.8-4.6 16.5-5.5 6.4-1.2 11.4-1.5 20-1.1 6.3 0.3 13.3 1.2 15.4 1.9 2.1 0.7 4.1 2 4.3 2.8 0.3 0.8-1.6 4.6-4.3 8.5-2.6 3.9-8.6 11-13.3 15.8-4.7 4.9-11.5 11.1-15.1 13.7-3.6 2.7-10.3 6.7-15 8.9-4.7 2.3-12.1 5-16.5 6.1-4.4 1.1-11.6 2.4-24 3.5l-3.3 5c-1.8 2.8-4.4 8.4-5.7 12.5-1.3 4.1-2.9 11.3-3.6 16-0.8 5.6-1 12.8-0.5 21 0.4 6.9 1 14.3 2.1 20.4l7 1.1c3.9 0.7 10.8 2.4 15.5 3.8 4.7 1.4 13.9 5.3 20.5 8.5 6.6 3.2 17 8.9 23 12.7 6 3.7 14.4 9 18.5 11.8 4.1 2.8 12.6 8.7 18.7 13.1 6.2 4.5 11.1 8.3 10.9 8.6-0.2 0.3-2.9 2.2-11.6 8l-9.2-1c-5.1-0.6-23.5-1.5-40.8-2-17.3-0.5-36.9-1.6-43.5-2.5-6.6-0.9-15.1-2.3-19-3.1-3.8-0.9-11-2.7-16-4.1-4.9-1.4-11.9-3.7-15.5-5-3.6-1.3-15.7-6.9-47.5-22.4l2.5-1.9c1.4-1.1 6.6-4.3 11.5-7.3 5-2.9 12.8-7 17.5-9 4.7-2 12.1-4.5 16.5-5.6 4.4-1.1 9.7-2.2 11.8-2.5 3.3-0.5 3.8-1 4.5-4.3 0.4-2.1 0.7-18 0.7-35.3 0-25.5-0.4-33.7-1.8-43-1-6.3-3.2-16.9-4.9-23.5-1.6-6.6-4.5-15.8-6.4-20.5-1.8-4.7-5-11.6-7.1-15.3-2.1-3.8-5-8.3-6.4-10-2.4-2.9-3.3-3.3-10.5-4-4.3-0.4-11.9-1.8-16.9-3.1-4.9-1.3-12.6-3.8-17-5.6-4.4-1.7-12-5.3-16.9-7.8-4.8-2.6-12.5-7.5-17-10.8-4.4-3.4-12.2-10.4-17.2-15.5-5-5.2-11.6-13.2-14.6-17.9-3.1-4.7-7.4-12.1-9.6-16.5-2.2-4.4-5.5-12.3-7.5-17.5-1.9-5.2-4.9-15.1-6.5-22-1.7-6.9-3.8-17.4-4.7-23.5-0.9-6.1-1.3-11.3-0.8-11.7 0.4-0.3 5.1-0.2 10.3 0.3 5.2 0.5 13.3 1.6 18 2.4 4.7 0.9 15 3.4 23 5.6 8 2.3 17.8 5.4 21.8 7 3.9 1.6 10.2 4.4 14 6.3 3.7 1.8 10.8 6.1 15.7 9.4 5 3.3 12.4 9.1 16.5 12.9 4.1 3.9 10.1 10.3 13.2 14.4 3.1 4.1 7.5 10.8 9.7 14.9 2.2 4.1 5.3 11.6 7 16.5 1.7 4.9 3.8 12.4 4.7 16.5 1.2 5.1 1.8 12.9 2.3 41.5l3.9 9c2.2 4.9 5.3 12.9 6.8 17.7 1.6 4.8 3.1 8.8 3.4 8.8 0.3 0 0.9-1.9 1.3-4.2 0.4-2.4 2.5-10.4 4.6-17.8 2.1-7.4 6.5-20 9.6-28 3.2-8 7.2-17.4 12.3-27.5l-1.4-6c-0.8-3.3-1.7-11.4-2-18-0.4-7.1-0.2-16.1 0.5-22 0.6-5.5 2.3-14.3 3.6-19.5 1.4-5.2 5.2-14.9 8.4-21.5 3.4-7.1 8.9-16.1 13.4-22 4.1-5.5 11.5-13.9 16.3-18.6 4.9-4.7 12.7-11.3 17.4-14.8 4.7-3.5 13-8.8 18.5-11.9 5.5-3.1 15-7.8 21-10.4 6-2.7 16.4-6.6 23-8.7 6.6-2.2 17.4-5.1 24-6.5 6.6-1.3 13.7-2.5 15.8-2.5zm164.2 359.2c5.4 0.2 7.9 0.8 11 2.8 2.4 1.5 4.9 4.3 6.2 7 1.3 2.4 2.3 6.2 2.3 8.4 0 2.5-1.2 6.6-3.3 11-1.9 3.9-8.1 14-13.8 22.5-5.7 8.5-14.9 21.6-20.4 29-5.5 7.4-14.7 19.6-20.4 27-5.8 7.4-17 21.4-25 31-7.9 9.6-22.4 25.4-32 35-13.1 13.1-20.1 19.2-27.6 24.2-5.5 3.6-16.1 9.8-23.5 13.7-7.4 3.8-24.3 12-37.5 18.1-13.2 6.2-34.8 16.1-48 22-13.2 5.9-31.6 14-41 17.9-9.3 3.8-20.6 8-25 9.1-4.4 1.2-12.3 2.4-17.5 2.7-5.6 0.3-13 0.1-18-0.7-4.7-0.6-14.6-2.9-22-5-7.4-2.1-29.9-8.5-50-14.3-20.1-5.8-46.4-13-58.5-16-12.1-3.1-27.2-6.3-33.5-7.3-8-1.1-14.7-1.5-22-1.1-7 0.4-13.5 1.5-19.5 3.2-4.9 1.5-12.4 4.4-16.5 6.6-4.1 2.2-11.5 6.9-16.5 10.6-4.9 3.6-15.1 12.8-22.5 20.4-11.4 11.6-14 13.8-16.5 13.8-2.6 0.1-6.7-3.7-31.5-28.3-15.7-15.6-29.7-29.5-31.3-30.8-1.5-1.2-10.8-10.7-20.7-21-11.1-11.6-18-19.6-18-20.8 0-1.1 4.3-7.1 9.6-13.2 5.2-6.2 13-15.8 17.3-21.3 4.3-5.5 14.3-19 22.1-30 7.9-11 17.3-23.8 21-28.5 3.7-4.7 11.2-12.8 16.7-18 5.4-5.2 14.1-12.5 19.3-16.2 5.2-3.7 13.3-8.8 18-11.2 4.7-2.5 11.7-5.6 15.5-7 3.9-1.3 10.6-3.4 15-4.5 4.4-1.1 11.8-2.5 16.5-3.2 5.4-0.7 15.1-1 26.5-0.7 14.3 0.4 20.5 1.1 30 3.1 6.6 1.5 16.6 4 22.3 5.7 5.6 1.6 16.4 5.4 24 8.4 7.5 2.9 23.6 10.1 35.7 15.9 12.1 5.8 25.8 12 30.5 13.7 4.7 1.7 13.5 4.4 19.5 6 6.1 1.6 15 3.6 20 4.4 5 0.8 14 2 20 2.5 6 0.6 23.8 1.5 39.5 2 15.7 0.6 33.4 1.7 39.5 2.6 6 0.9 14.8 2.8 19.5 4.2 4.7 1.3 10.7 3.6 13.5 5.1 2.7 1.5 6.9 4.7 9.3 7.2 2.7 2.8 4.9 6.4 5.9 9.5 0.9 2.8 1.4 6.6 1.1 8.5-0.2 1.9-1.7 5.6-3.1 8.3-1.9 3.3-4.5 5.9-8.9 8.7-3.5 2.2-8.3 4.7-10.8 5.5-2.5 0.8-11.5 2.4-20 3.5-9.2 1.2-24.4 2.3-37.5 2.6-15.6 0.5-28.7 0.1-45-1-12.6-0.9-30.4-1.9-39.5-2.3-10.1-0.4-22.5-0.1-32 0.6-8.5 0.7-17.1 1.6-19 2.1-2.6 0.6-0.8 0.8 7 0.9 5.8 0.1 24.5 1.7 41.5 3.6 17 1.9 37.1 4 44.5 4.6 7.4 0.7 23.9 1.2 36.5 1.2 15.6 0 27.5-0.6 37-1.7 7.7-1 17.4-2.4 21.5-3.2 4.2-0.8 11.1-3.2 15.8-5.4 4.8-2.4 10.2-5.9 13.1-8.7 2.6-2.7 5-5.3 5.2-5.8 0.2-0.6 5.1-3.7 10.9-6.9 5.8-3.2 13.8-8.2 17.9-11 4.1-2.8 11.1-8.2 15.5-12 4.5-3.8 11.2-9.8 14.9-13.5 3.8-3.6 12.8-13.1 20.1-21.1 7.2-8 22.4-25.1 33.7-38 11.3-12.9 22.8-25.6 25.5-28.1 2.7-2.5 8.5-6.9 12.9-9.8 4.4-2.9 10.7-6.1 14-7.2 4.2-1.3 8.1-1.8 13-1.6zm-53 5.8c1.1-0.1 3.7 0.4 5.8 0.9 2 0.6 4 1.7 4.5 2.5 0.5 1.1-1.6 3.9-7.4 9.8-4.5 4.5-11 11.3-14.5 15.2-3.5 3.9-14.5 16.2-24.3 27.5-9.9 11.3-25.2 27.8-34 36.6-8.9 8.9-19.9 19-24.6 22.4-4.7 3.4-12.2 8.4-16.7 11.1-4.6 2.7-8.4 4.9-8.5 4.9-0.2 0-0.6-2.6-1-5.7-0.4-3.2-1.8-7.8-3-10.3-1.2-2.5-4.3-6.7-6.8-9.4-2.5-2.6-6.4-5.9-13-9.6l10.8-11.3c5.9-6.2 14.1-15.3 18.3-20.2 4.1-5 10.2-12.6 13.5-17 3.4-4.4 8.5-10.2 11.5-12.8 3-2.6 8.3-6.2 11.9-8 4.5-2.2 8.4-3.3 12.5-3.6 3.3-0.2 7 0.1 8.3 0.8 1.4 0.7 2.2 2 2.2 3.6 0 1.7-4.4 8.1-13.4 19.8-7.4 9.4-19.6 24.5-27 33.5-7.5 8.9-13.1 16.2-12.6 16.2 0.5 0 9-8 18.8-17.7 10.1-10.1 25.2-26.7 34.8-38.3 9.4-11.3 19.7-22.9 23-25.9 3.2-2.9 8.6-6.8 11.9-8.7 3.3-1.8 8.5-4 11.5-4.8 3-0.8 6.4-1.5 7.5-1.5z"/>
	</g>
</svg>