<svg version="1.2" xmlns="http://www.w3.org/2000/svg" viewBox="0 0 616 689" width="616" height="689">
	<title>things_clear</title>
	<style>
		.s0 { fill: #0d0d0d } 
		.s1 { fill: #7da3b2 } 
	</style>
	<g id="Background">
		<path id="Path 1" class="s0" d="m303.3 1c-1.2 0.4-3.1 2.1-4.3 3.7-2 2.7-2.1 3.9-2 40.5 0 31.6 0.2 38.3 1.5 40.8 0.8 1.7 2.9 3.7 4.5 4.5 1.6 0.8 4.1 1.5 5.5 1.5 1.4 0 3.7-0.6 5.2-1.4 1.6-0.7 3.5-2.6 4.3-4.1 1.3-2.4 1.5-9 1.5-41.2v-38.5c-6.5-5.9-8.4-6.8-10.8-6.7-1.7 0-4.2 0.4-5.4 0.9zm-196.8 68.4c-2.5 2.6-3.3 4.3-3.4 7.3-0.1 2.1 0.6 4.9 1.6 6.3 0.9 1.4 8.7 10.6 17.2 20.5 8.6 9.9 19.5 22.4 24.3 27.8 6.3 6.9 9.7 9.9 12.1 10.5 1.7 0.5 4.6 0.5 6.2 0.1 1.6-0.5 4-2 5.3-3.4 1.2-1.4 2.5-3.7 2.8-5.3 0.3-1.5 0.4-3.6 0.1-4.7-0.3-1.1-2.1-3.8-3.9-6.1-1.8-2.3-13.2-15.5-25.4-29.5-12.1-14-22.8-25.7-23.7-26.2-0.9-0.4-3.5-0.7-5.8-0.7-3.3 0-4.7 0.6-7.4 3.4zm387-0.2c-1.8 1.8-13.6 15.3-26.2 29.9-15 17.5-23.1 27.6-23.6 29.7-0.4 2-0.2 4.4 0.6 6.5 0.8 1.7 2.5 3.9 3.8 4.8 1.3 0.9 3.6 1.9 5.2 2.2 1.5 0.4 3.9 0.3 5.5-0.3 1.5-0.5 6.5-5.3 11.2-10.7 4.7-5.4 16.1-18.5 25.3-29.3 12.9-15 16.9-20.3 17.3-23 0.3-2 0-4.7-0.8-6.4-0.7-1.6-2.4-3.8-3.8-4.8-1.6-1.2-4.1-1.9-6.8-1.8-3.4 0-4.9 0.6-7.7 3.3zm-206.5 52.3c-1.9 0.3-8.2 1.3-14 2.4-5.8 1.1-16.1 3.8-23 6.1-6.9 2.2-17.2 6.4-23 9.3-5.8 2.9-13.9 7.4-18 10-4.1 2.7-10.6 7.5-14.5 10.6-3.9 3.2-11.4 10.2-16.9 15.6-5.4 5.5-12.9 14-16.6 18.9-3.7 4.9-8.6 12-10.9 15.8-2.2 3.7-5.6 9.7-7.5 13.5-1.8 3.7-5 11.2-7.1 16.7-2 5.5-4.8 14.3-6.1 19.5-1.4 5.2-3.1 14.6-3.9 20.8-0.8 6.1-1.5 15.6-1.5 21 0 5.3 0.5 14.6 1.1 20.7 0.5 6.1 2.1 15.7 3.5 21.5 1.4 5.8 3.7 13.9 5.1 18 1.4 4.1 5.1 12.5 8.1 18.5 3.1 6 7.9 14.4 10.6 18.5 2.7 4.1 9.2 13.1 14.6 20 5.4 6.9 11.3 15 13.2 18 2 3 5.6 9.7 8.2 14.8 2.5 5 5.7 12.5 7 16.5 1.3 3.9 3.6 14.8 5.1 24.2 1.5 9.4 3.5 18.8 4.4 21 1 2.2 3.3 5.7 5.2 7.9 1.9 2.1 5.4 5 7.9 6.5l4.5 2.6c153.1 0.5 166.8 0.3 171-0.9 3.1-0.9 6.9-3.1 9.8-5.8 2.7-2.4 6-6.5 7.3-9.3 1.5-3.2 3.4-11.3 5.4-23 1.7-9.9 4.2-21.3 5.5-25.2 1.4-4 4.1-10.6 6.1-14.5 2-4 5.5-10.2 7.9-13.8 2.3-3.6 9.1-13 15.1-21 6-8 13.6-18.8 16.9-24 3.2-5.2 8-14.2 10.6-20 2.6-5.8 6.1-15.7 7.8-22 1.6-6.3 3.5-15.1 4.2-19.5 0.7-4.5 1.3-17.4 1.3-29.5 0.1-18.7-0.2-23-2.2-33-1.3-6.3-3.9-16.2-5.8-22-1.9-5.8-5.7-15-8.4-20.5-2.6-5.5-7.4-14.1-10.5-19-3.1-4.9-8.8-12.8-12.5-17.5-3.7-4.7-11.4-13-17.1-18.5-5.7-5.5-14.2-12.9-18.9-16.4-4.7-3.5-11.6-8.2-15.5-10.4-3.9-2.2-10.8-5.7-15.5-7.8-4.7-2-13.7-5.3-20-7.3-6.3-2-16-4.6-21.5-5.7-7.9-1.6-14.6-2.1-31.5-2.4-11.8-0.2-23.1-0.1-25 0.1zm-281.5 103.2c-1.7 1-3.6 3.1-4.3 4.8-0.8 1.6-1.1 4.4-0.8 6.4 0.3 1.9 1.6 4.6 2.9 6 2.1 2.1 8.7 4.2 39.8 12.4 28.3 7.5 38.1 9.7 40.4 9.1 1.6-0.4 4.2-2 5.8-3.6 2-2.2 2.7-3.9 2.7-7.1 0.1-3-0.6-5.2-2.2-7.2-1.3-1.6-3.4-3.3-4.8-3.8-1.4-0.5-16.9-4.7-34.5-9.3-17.6-4.6-34.2-8.6-37-9-3.9-0.4-5.7-0.1-8 1.3zm562.5 7.3c-19.5 5-36.7 9.7-38.2 10.5-1.6 0.8-3.5 2.4-4.3 3.7-0.8 1.2-1.5 4.1-1.5 6.5 0 3.2 0.7 4.9 2.8 7.2 1.7 1.9 4 3.3 6.2 3.6 2.5 0.4 14.2-2.3 41-9.5 20.6-5.5 38.1-10.6 38.8-11.3 0.7-0.7 1.6-2.9 2.1-4.8 0.4-1.9 0.4-5.1-0.1-7-0.4-1.9-1.6-4.3-2.5-5.3-1-0.9-3.4-1.9-5.3-2.2-2.5-0.4-14.1 2.2-39 8.6zm-480.5 153.4c-1.6 0.8-17.4 7.6-34.9 15.2-22.5 9.7-32.5 14.5-33.8 16.3-1.2 1.5-2 4.1-2 6.5 0 2.2 0.5 5 1.1 6.2 0.6 1.3 2.5 3 4.1 3.8 1.7 0.8 4.5 1.5 6.3 1.5 1.7 0 6.1-1.3 9.7-2.9 3.6-1.5 18.9-8.1 34-14.5 15.1-6.5 28.5-12.8 29.8-14 1.2-1.1 2.7-3.6 3.2-5.4 0.7-2.1 0.7-4.4 0-6.7-0.6-2.2-2.2-4.2-4.2-5.5-1.8-1.1-4.9-2-6.8-1.9-1.9 0-4.9 0.7-6.5 1.4zm427 1.9c-2.4 2.5-3.3 4.4-3.4 7-0.1 2 0.6 5 1.4 6.6 1 2 3.3 3.8 6.8 5.4 2.8 1.4 18.8 8.3 35.5 15.5 22 9.6 31.3 13.1 34.2 13.1 3.1 0 4.7-0.7 7-3 1.6-1.6 3.1-4 3.2-5.3 0-1.2 0-3.3-0.1-4.7-0.1-1.4-0.9-3.5-1.7-4.8-0.8-1.2-3.8-3.3-6.6-4.6-2.9-1.3-18.7-8.3-35-15.5-22.4-9.8-30.8-13.1-33.9-13.1-3.3 0-4.7 0.6-7.4 3.4zm-292.8 163.1c-1.5 0.8-3.4 2.9-4.2 4.5-0.8 1.6-1.5 4.4-1.5 6 0 1.6 0.7 4.4 1.5 6 0.8 1.7 3 3.7 5 4.5 3 1.3 14.8 1.5 85.5 1.5 65.3 0 82.7-0.3 85.3-1.3 1.7-0.7 4-2.4 5-3.8 1-1.5 1.7-4.2 1.7-7.1 0-3.9-0.6-5.4-2.9-8l-2.9-3.3c-157.9-0.4-170.1-0.2-172.4 1zm5.3 41.2c-1.3 0.2-3.6 1.8-5.2 3.4-2.5 2.4-2.9 3.7-2.9 8.1 0 3.5 0.6 6.1 1.7 7.7 1 1.4 3.3 3.1 5.1 3.8 2.5 1 19.6 1.3 83.7 1.3 69.6 0 80.9-0.2 83.5-1.5 1.6-0.8 3.7-3 4.6-4.8 1.1-2.2 1.5-4.6 1.1-7.7-0.4-3.5-1.3-5.2-4.1-7.8l-3.6-3.2c-125.2 0.2-162.6 0.5-163.9 0.7zm16 49.7c0.3 6.3 0.8 8.1 3.4 11.8 1.7 2.3 6.4 6.6 10.5 9.5 4.1 2.8 10.4 7.8 14 11.1 3.6 3.2 8.8 7 11.5 8.4 2.8 1.4 7.7 3.4 11 4.3 3.6 1.1 9.5 1.8 14.5 1.8 5.2 0 10.8-0.7 14.5-1.8 3.3-0.9 8.3-2.9 11-4.3 2.8-1.4 7.7-5 11-8.1 3.3-3.1 8-7 10.5-8.6 2.5-1.6 6.9-5.1 9.8-7.9 2.9-2.8 6-6.9 6.8-9.1 0.8-2.2 1.4-6.2 1.2-9l-0.3-5-129.7-0.5z"/>
		<path id="Path 2" class="s1" d="m286 146.4c-5.2 0.8-14 2.6-19.5 4-5.5 1.5-12.9 3.9-16.5 5.3-3.6 1.4-9.9 4.3-14 6.3-4.1 2.1-11.6 6.5-16.5 9.8-4.9 3.3-12.6 9.2-17 13-4.4 3.8-11.1 10.7-15 15.2-3.9 4.5-9.4 11.6-12.3 15.8-3 4.2-7.8 12.6-10.8 18.7-2.9 6.1-6.7 15.3-8.4 20.5-1.7 5.2-4 14-5.2 19.5-1.8 8.1-2.2 13.4-2.2 28 0 14.9 0.4 20 2.3 29.5 1.3 6.3 3.6 15.3 5.3 20 1.6 4.7 5.6 13.7 8.9 20 4 7.8 10.5 17.6 20.2 30.5 7.8 10.5 16.3 22.6 18.9 27 2.6 4.4 6.2 11.4 8.1 15.5 1.9 4.1 4.8 11.8 6.5 17 1.7 5.2 4.2 16.7 5.7 25.5 1.5 8.8 3.3 16.6 3.9 17.3 0.9 1 7.9 1.2 34.1 1l33-0.3c0.5-82.8 0.3-92.2-0.7-93.1-0.7-0.6-4.7-2.1-8.8-3.3-4.1-1.3-10.6-3.9-14.5-5.9-4.8-2.6-9.9-6.5-16.1-12.7-8-7.9-9.7-10.2-14.2-19.5-3.4-7-5.7-13.4-6.8-19-1.2-6.2-1.5-11.1-1.1-18 0.3-5.2 1.3-12.2 2.2-15.5 0.9-3.3 3.4-9.6 5.5-14 2.2-4.4 6-10.6 8.5-13.8 2.5-3.1 7.3-8 10.8-10.7 3.4-2.8 9.8-6.8 14.2-9 4.4-2.2 11.8-5 16.5-6.1 7.2-1.8 10.4-2.1 21-1.6 8.2 0.3 14.6 1.2 18.5 2.4 3.3 1.1 9.1 3.6 13 5.6 3.9 2 9.9 6 13.5 9 3.6 2.9 8.6 8.2 11.2 11.7 2.5 3.6 6.2 9.9 8.2 14 1.9 4.1 4.3 10.4 5.3 14 1.1 4.3 1.6 10.2 1.6 17.5 0 8-0.6 13.2-2.2 19-1.2 4.4-3.7 11.1-5.6 15-1.9 3.9-5.6 9.6-8.2 12.8-2.7 3.2-7.5 8-10.8 10.8-3.3 2.7-9.4 6.7-13.5 8.8-4.1 2.2-10.8 4.9-14.7 6q-7.3 2.1-7.8 3.8c-0.3 1-0.5 21.4-0.4 45.3 0.1 23.9 0.3 44.3 0.5 45.2 0.4 1.7 2.8 1.8 33.9 1.8h33.5c1.5-5 3.1-13.5 4.5-22 1.4-8.5 3.9-19.4 5.6-24.3 1.6-4.8 4.9-12.7 7.4-17.7 2.5-5 6.4-12 8.6-15.8 2.3-3.7 9.2-13.5 15.4-21.7 6.2-8.3 13.3-18.1 15.8-22 2.4-3.9 6-10.1 8-14 1.9-3.9 4.8-10.8 6.5-15.5 1.6-4.7 4-12.8 5.3-18 2.1-8.5 2.3-11.8 2.3-31 0-18.3-0.3-23-2.1-31.5-1.2-5.5-3.6-14.1-5.4-19-1.7-5-5.7-14.2-8.9-20.5-3.2-6.3-8.7-15.6-12.2-20.5-3.5-5-11.9-14.7-18.8-21.6-8.3-8.3-15.7-14.7-22-18.8-5.2-3.5-13.4-8.3-18.2-10.7-4.9-2.4-13-5.8-18-7.5-5.1-1.7-14.5-4.2-20.8-5.6-8.8-1.8-15.5-2.5-28.5-2.8-11.1-0.3-20.3 0-26.5 0.9z"/>
	</g>
</svg>